HIERARCHY
ROOT Hips
{
	OFFSET 0.000000 0.000000 0.000000
	CHANNELS 6 Xposition Yposition Zposition Zrotation Yrotation Xrotation 
	JOINT LHipJoint
	{
		OFFSET 0.000000 0.000000 0.000000
		CHANNELS 3 Zrotation Yrotation Xrotation
		JOINT LeftUpLeg
		{
			OFFSET 1.363060 -1.794630 0.839290
			CHANNELS 3 Zrotation Yrotation Xrotation
			JOINT LeftLeg
			{
				OFFSET 2.448110 -6.726130 0.000000
				CHANNELS 3 Zrotation Yrotation Xrotation
				JOINT LeftFoot
				{
					OFFSET 2.562200 -7.039590 0.000000
					CHANNELS 3 Zrotation Yrotation Xrotation
					JOINT LeftToeBase
					{
						OFFSET 0.157640 -0.433110 2.322550
						CHANNELS 3 Zrotation Yrotation Xrotation
						End Site
						{
							OFFSET 0.000000 0.000000 0.000000
						}
					}
				}
			}
		}
	}
	JOINT RHipJoint
	{
		OFFSET 0.000000 0.000000 0.000000
		CHANNELS 3 Zrotation Yrotation Xrotation
		JOINT RightUpLeg
		{
			OFFSET -1.305520 -1.794630 0.839290
			CHANNELS 3 Zrotation Yrotation Xrotation
			JOINT RightLeg
			{
				OFFSET -2.542530 -6.985550 0.000000
				CHANNELS 3 Zrotation Yrotation Xrotation
				JOINT RightFoot
				{
					OFFSET -2.568260 -7.056230 0.000000
					CHANNELS 3 Zrotation Yrotation Xrotation
					JOINT RightToeBase
					{
						OFFSET -0.164730 -0.452590 2.363150
						CHANNELS 3 Zrotation Yrotation Xrotation
						End Site
						{
							OFFSET 0.000000 0.000000 0.000000
						}
					}
				}
			}
		}
	}
	JOINT LowerBack
	{
		OFFSET 0.000000 0.000000 0.000000
		CHANNELS 3 Zrotation Yrotation Xrotation
		JOINT Spine
		{
			OFFSET 0.028270 2.035590 -0.193380
			CHANNELS 3 Zrotation Yrotation Xrotation
			JOINT Spine1
			{
				OFFSET 0.056720 2.048850 -0.042750
				CHANNELS 3 Zrotation Yrotation Xrotation
				JOINT Neck
				{
					OFFSET 0.000000 0.000000 0.000000
					CHANNELS 3 Zrotation Yrotation Xrotation
					JOINT Neck1
					{
						OFFSET -0.054170 1.746240 0.172020
						CHANNELS 3 Zrotation Yrotation Xrotation
						JOINT Head
						{
							OFFSET 0.104070 1.761360 -0.123970
							CHANNELS 3 Zrotation Yrotation Xrotation
							End Site
							{
								OFFSET 0.000000 0.000000 0.000000
							}
						}
					}
				}
				JOINT LeftShoulder
				{
					OFFSET 0.000000 0.000000 0.000000
					CHANNELS 3 Zrotation Yrotation Xrotation
					JOINT LeftArm
					{
						OFFSET 3.362410 1.200890 -0.311210
						CHANNELS 3 Zrotation Yrotation Xrotation
						JOINT LeftForeArm
						{
							OFFSET 4.983000 -0.000000 -0.000000
							CHANNELS 3 Zrotation Yrotation Xrotation
							JOINT LeftHand
							{
								OFFSET 3.483560 -0.000000 -0.000000
								CHANNELS 3 Zrotation Yrotation Xrotation
								JOINT LeftFingerBase
								{
									OFFSET 0.000000 0.000000 0.000000
									CHANNELS 3 Zrotation Yrotation Xrotation
									JOINT LeftHandIndex1
									{
										OFFSET 0.715260 -0.000000 -0.000000
										CHANNELS 3 Zrotation Yrotation Xrotation
										End Site
										{
											OFFSET 0.000000 0.000000 0.000000
										}
									}
								}
								JOINT LThumb
								{
									OFFSET 0.000000 0.000000 0.000000
									CHANNELS 3 Zrotation Yrotation Xrotation
									End Site
									{
										OFFSET 0.000000 0.000000 0.000000
									}
								}
							}
						}
					}
				}
				JOINT RightShoulder
				{
					OFFSET 0.000000 0.000000 0.000000
					CHANNELS 3 Zrotation Yrotation Xrotation
					JOINT RightArm
					{
						OFFSET -3.136600 1.374050 -0.404650
						CHANNELS 3 Zrotation Yrotation Xrotation
						JOINT RightForeArm
						{
							OFFSET -5.241900 -0.000000 -0.000000
							CHANNELS 3 Zrotation Yrotation Xrotation
							JOINT RightHand
							{
								OFFSET -3.444170 -0.000000 -0.000000
								CHANNELS 3 Zrotation Yrotation Xrotation
								JOINT RightFingerBase
								{
									OFFSET 0.000000 0.000000 0.000000
									CHANNELS 3 Zrotation Yrotation Xrotation
									JOINT RightHandIndex1
									{
										OFFSET -0.622530 -0.000000 -0.000000
										CHANNELS 3 Zrotation Yrotation Xrotation
										End Site
										{
											OFFSET 0.000000 0.000000 0.000000
										}
									}
								}
								JOINT RThumb
								{
									OFFSET 0.000000 0.000000 0.000000
									CHANNELS 3 Zrotation Yrotation Xrotation
									End Site
									{
										OFFSET 0.000000 0.000000 0.000000
									}
								}
							}
						}
					}
				}
			}
		}
	}
}
MOTION
Frames: 5
Frame Time: 0.008333
3.323918 17.195931 0.907373 171.361526 -85.851255 -160.054514 -11.552377 2.039815 1.056684 -4.721403 17.062489 -14.592708 -2.651930 -1.288231 -3.731913 0.376225 3.606052 3.479372 0.871900 0.000000 -36.804000 9.443603 -1.639213 2.577421 2.188331 -3.390372 -11.649561 2.148767 1.467336 0.311671 -0.114548 -5.828515 -1.964672 -2.101000 0.000000 -43.466300 0.539964 -1.937649 -4.946816 -0.162717 -2.038237 -3.843714 -5.490644 -1.877969 -1.569934 7.054620 -6.807321 -0.025042 -4.085843 -0.382439 2.084865 0.000000 0.000000 0.000000 9.399978 5.494366 -2.474832 -89.168963 -17.683871 22.578805 -178.733565 -52.726260 179.927959 4.659724 -8.839851 -0.413731 -0.095459 1.265714 -0.000000 0.000000 0.000000 0.000000 0.000000 0.000000 0.000000 1.928103 -4.868117 -4.067323 89.265445 25.455178 32.853362 -178.868379 64.369293 179.817790 -14.362030 14.204676 -1.967554 0.259041 -1.057365 -0.000000 0.000000 0.000000 0.000000 0.000000 0.000000 0.000000 
3.327331 17.196510 0.905780 169.876024 -86.173830 -158.574286 -11.546218 2.024901 1.093531 -4.740243 16.838791 -14.601768 -2.648698 -1.300949 -3.759754 0.365096 3.558770 3.549510 0.872100 -0.000000 -36.789399 9.449288 -1.663957 2.569188 2.173181 -3.486106 -11.622987 2.131790 1.458192 0.317857 -0.130352 -6.010952 -2.012246 -2.142000 -0.000000 -43.429100 0.431281 -1.909237 -4.974894 -0.171831 -1.996835 -3.882168 -5.406443 -1.843244 -1.725923 6.987335 -6.563709 0.212621 -4.083587 -0.384626 2.150014 0.000000 0.000000 0.000000 9.350977 5.192840 -2.462522 -89.246886 -17.777403 22.837475 -178.791888 -52.870362 179.926891 4.672157 -8.844573 -0.414743 -0.091629 1.265663 -0.000000 0.000000 0.000000 0.000000 0.000000 0.000000 0.000000 2.042208 -4.618346 -4.078340 88.901598 26.063985 32.371672 -178.888255 65.136898 179.817774 -14.416009 13.950355 -1.938766 0.253412 -1.041136 -0.000000 0.000000 0.000000 0.000000 0.000000 0.000000 0.000000 
3.330855 17.197054 0.904204 168.235784 -86.486325 -156.944183 -11.537859 2.009313 1.128213 -4.758193 16.636320 -14.607454 -2.646856 -1.315464 -3.791801 0.353158 3.509882 3.621955 0.872200 0.000000 -36.776100 9.457490 -1.693237 2.568279 2.158656 -3.569632 -11.591704 2.115419 1.449357 0.308383 -0.147723 -6.186363 -2.049900 -2.179900 0.000001 -43.388900 0.319471 -1.876154 -5.010004 -0.179281 -1.950198 -3.924990 -5.305377 -1.804028 -1.893127 6.911396 -6.289947 0.470700 -4.080936 -0.387004 2.220816 0.000000 0.000000 0.000000 9.296555 4.872451 -2.447100 -89.332250 -17.845324 23.088518 -178.859180 -53.015258 179.925780 4.679864 -8.845658 -0.415168 -0.086821 1.265143 -0.000000 0.000000 0.000000 0.000000 0.000000 0.000000 0.000000 2.176808 -4.332445 -4.090550 88.463173 26.803590 31.857024 -178.917353 66.017592 179.818006 -14.463916 13.679745 -1.906589 0.247317 -1.023770 -0.000000 0.000000 0.000000 0.000000 0.000000 0.000000 0.000000 
3.334433 17.197582 0.902670 166.474759 -86.784287 -155.198244 -11.526396 1.993681 1.159970 -4.773851 16.459832 -14.608354 -2.646555 -1.331487 -3.827261 0.340379 3.458234 3.695592 0.871900 -0.000000 -36.765000 9.469306 -1.726446 2.573761 2.146272 -3.644051 -11.555830 2.100184 1.440743 0.285669 -0.166121 -6.349168 -2.077773 -2.213600 -0.000000 -43.348100 0.208589 -1.837251 -5.050437 -0.184663 -1.897551 -3.971681 -5.188617 -1.759252 -2.069966 6.825471 -5.979940 0.746788 -4.077029 -0.389488 2.296566 0.000000 0.000000 0.000000 9.230014 4.544635 -2.427988 -89.418897 -17.897745 23.334903 -178.931782 -53.164357 179.924638 4.684863 -8.845427 -0.415303 -0.081418 1.264334 -0.000000 0.000000 0.000000 0.000000 0.000000 0.000000 0.000000 2.327929 -4.002783 -4.103047 87.946150 27.672204 31.302521 -178.953163 67.016765 179.818452 -14.503608 13.397284 -1.871424 0.240483 -1.005426 -0.000000 0.000000 0.000000 0.000000 0.000000 0.000000 0.000000 
3.338295 17.198110 0.901217 164.647426 -87.063227 -153.394372 -11.511186 1.978684 1.187789 -4.785471 16.312865 -14.602033 -2.647620 -1.348331 -3.865202 0.326944 3.403883 3.769783 0.871000 -0.000000 -36.756100 9.485510 -1.762242 2.583814 2.137464 -3.712456 -11.514974 2.086555 1.432155 0.253164 -0.184716 -6.493781 -2.095476 -2.242100 -0.000000 -43.307600 0.102375 -1.791628 -5.093236 -0.187384 -1.838280 -4.022052 -5.055665 -1.708114 -2.257292 6.727191 -5.631988 1.039175 -4.071724 -0.392064 2.376808 0.000000 0.000000 0.000000 9.149374 4.205796 -2.405048 -89.502149 -17.929980 23.567861 -179.009895 -53.310257 179.923432 4.689075 -8.844619 -0.415248 -0.075500 1.263297 -0.000000 0.000000 0.000000 0.000000 0.000000 0.000000 0.000000 2.492826 -3.626363 -4.112738 87.344603 28.670371 30.706209 -178.993911 68.143768 179.819062 -14.537436 13.103907 -1.833671 0.232852 -0.986167 -0.000000 0.000000 0.000000 0.000000 0.000000 0.000000 0.000000 
